<?xml version="1.0" encoding="utf-8"?>
<!-- Generator: Adobe Illustrator 16.0.0, SVG Export Plug-In . SVG Version: 6.00 Build 0)  -->
<!DOCTYPE svg PUBLIC "-//W3C//DTD SVG 1.1//EN" "http://www.w3.org/Graphics/SVG/1.1/DTD/svg11.dtd">
<svg version="1.1" id="Capa_1" xmlns="http://www.w3.org/2000/svg" xmlns:xlink="http://www.w3.org/1999/xlink" x="0px" y="0px"
	 width="800px" height="600px" viewBox="0 0 800 600" enable-background="new 0 0 800 600" xml:space="preserve">
<g>
	<path fill="#363636" d="M280.121,395.055h330.601c37.487,0,68.068-30.581,68.068-68.068V187.89c0-0.123,0-0.37,0-0.493
		c0-0.37,0-0.616,0-0.986c0-0.247,0-0.493-0.123-0.74c0-0.247-0.123-0.617-0.123-0.863s-0.124-0.493-0.124-0.74
		c-0.123-0.247-0.123-0.494-0.246-0.863c-0.123-0.247-0.123-0.493-0.247-0.74c-0.123-0.247-0.123-0.493-0.246-0.74
		c-0.124-0.247-0.247-0.493-0.37-0.863c-0.123-0.247-0.247-0.493-0.37-0.616c-0.123-0.247-0.246-0.494-0.37-0.74
		c-0.123-0.247-0.246-0.37-0.37-0.616c-0.123-0.247-0.369-0.494-0.493-0.74c-0.123-0.247-0.246-0.37-0.493-0.616
		c-0.123-0.247-0.369-0.37-0.493-0.617c-0.123-0.247-0.37-0.37-0.493-0.617s-0.37-0.37-0.493-0.493
		c-0.246-0.247-0.37-0.37-0.616-0.617c-0.247-0.123-0.37-0.37-0.617-0.493c-0.246-0.123-0.493-0.37-0.739-0.493
		c-0.247-0.123-0.37-0.247-0.617-0.37c-0.246-0.123-0.493-0.247-0.739-0.493c-0.247-0.123-0.493-0.247-0.74-0.37
		c-0.246-0.124-0.493-0.247-0.74-0.37c-0.246-0.124-0.493-0.247-0.739-0.37c-0.247-0.123-0.493-0.123-0.74-0.247
		c-0.246-0.123-0.616-0.247-0.863-0.247c-0.246,0-0.493-0.123-0.616-0.123c-0.37-0.124-0.616-0.124-0.986-0.124
		c-0.123,0-0.247-0.123-0.493-0.123l-419.016-57.834v-58.45c0-0.617,0-1.233-0.124-1.727c0-0.124,0-0.247-0.124-0.493
		c0-0.37-0.123-0.74-0.123-1.11c-0.124-0.37-0.124-0.617-0.247-0.986c0-0.247-0.124-0.37-0.124-0.617
		c-0.123-0.37-0.247-0.74-0.37-1.11c0-0.123-0.124-0.37-0.124-0.493c-0.123-0.37-0.247-0.617-0.493-0.986
		c-0.124-0.124-0.124-0.37-0.247-0.494c-0.124-0.247-0.247-0.493-0.493-0.74c-0.124-0.247-0.247-0.37-0.37-0.617
		s-0.247-0.37-0.37-0.616c-0.123-0.247-0.37-0.494-0.493-0.74c-0.123-0.123-0.247-0.247-0.37-0.37
		c-0.247-0.247-0.494-0.493-0.74-0.74c-0.123-0.123-0.247-0.247-0.37-0.37c-0.247-0.247-0.494-0.493-0.863-0.74
		c-0.124-0.124-0.37-0.247-0.493-0.37c-0.247-0.247-0.494-0.37-0.74-0.617c-0.37-0.247-0.74-0.493-0.986-0.617
		c-0.124-0.123-0.247-0.123-0.37-0.247c-0.493-0.247-1.11-0.493-1.603-0.74L144.354,1.318c-8.509-3.576-18.25,0.37-21.827,8.878
		c-3.576,8.508,0.37,18.25,8.878,21.826l80.646,34.034v75.467v11.961v91.744v82.002v103.583c0,34.527,25.896,63.136,59.313,67.452
		c-6.042,10.111-9.619,21.949-9.619,34.527c0,37.117,30.211,67.205,67.206,67.205c36.994,0,67.205-30.212,67.205-67.205
		c0-12.331-3.33-24.046-9.249-33.911h149.702c-5.919,9.988-9.249,21.58-9.249,33.911c0,37.117,30.212,67.205,67.205,67.205
		c36.994,0,67.206-30.212,67.206-67.205c0-36.994-30.212-67.205-67.206-67.205H280.121c-19.237,0-34.774-15.661-34.774-34.774
		v-45.133C255.458,391.602,267.42,395.055,280.121,395.055z M362.987,532.672c0,18.743-15.291,33.91-33.911,33.91
		s-33.911-15.29-33.911-33.91c0-18.621,15.291-33.911,33.911-33.911S362.987,513.928,362.987,532.672z M628.603,532.672
		c0,18.743-15.291,33.91-33.911,33.91s-33.911-15.29-33.911-33.91c0-18.621,15.291-33.911,33.911-33.911
		S628.603,513.928,628.603,532.672z M610.722,361.761H280.121c-19.237,0-34.774-15.661-34.774-34.774v-82.003v-91.744v-6.166
		l400.149,55.121v124.669C645.496,346.223,629.835,361.761,610.722,361.761z"/>
</g>
</svg>
