<?xml version="1.0" encoding="utf-8"?>
<!-- Generator: Adobe Illustrator 16.0.0, SVG Export Plug-In . SVG Version: 6.00 Build 0)  -->
<!DOCTYPE svg PUBLIC "-//W3C//DTD SVG 1.1//EN" "http://www.w3.org/Graphics/SVG/1.1/DTD/svg11.dtd">
<svg version="1.1" id="Capa_1" xmlns="http://www.w3.org/2000/svg" xmlns:xlink="http://www.w3.org/1999/xlink" x="0px" y="0px"
	 width="800px" height="600px" viewBox="0 0 800 600" enable-background="new 0 0 800 600" xml:space="preserve">
<g>
	<g>
		<path fill="#363636" d="M460.912,371.682c-26.605-26.604-58.271-46.301-92.821-58.221c37.002-25.487,61.314-68.141,61.314-116.371
			c0-77.866-63.349-141.214-141.214-141.214c-77.865,0-141.214,63.348-141.214,141.214c0,48.23,24.311,90.884,61.316,116.371
			c-34.55,11.92-66.216,31.616-92.821,58.221C69.337,417.817,43.929,479.156,43.929,544.4h38.166
			c0-113.643,92.454-206.097,206.096-206.097S494.287,430.758,494.287,544.4h38.167
			C532.454,479.156,507.046,417.817,460.912,371.682z M288.191,300.137c-56.82,0-103.048-46.226-103.048-103.047
			S231.371,94.042,288.191,94.042S391.24,140.268,391.24,197.09S345.012,300.137,288.191,300.137z"/>
	</g>
</g>
<rect x="453.338" y="311.722" fill="#363636" width="310.456" height="28.293"/>
<rect x="453.338" y="232.722" fill="#363636" width="310.456" height="28.293"/>
<rect x="453.338" y="149.722" fill="#363636" width="310.456" height="28.293"/>
</svg>
